<svg width="25" height="25" viewBox="0 0 25 25" fill="none" xmlns="http://www.w3.org/2000/svg">
<path d="M17.7034 8.4258L17.4359 7.54538C17.0961 6.54527 16.0099 6.01001 15.0098 6.34981C14.4472 6.54095 14.0053 6.98277 13.8142 7.54538L13.5467 8.4258C13.3216 9.1683 13.2744 9.95335 13.4088 10.7175C13.5314 11.3608 13.9398 11.9135 14.5188 12.2195L14.2192 18.9166C14.1791 19.2904 14.3003 19.6636 14.5525 19.9425C15.0949 20.5357 16.0155 20.5769 16.6087 20.0346C16.6408 20.0053 16.6715 19.9745 16.7009 19.9425C16.9474 19.6715 17.0685 19.3093 17.0342 18.9445L16.733 12.2187C17.3111 11.9125 17.7189 11.3602 17.8413 10.7175C17.9757 9.95335 17.9285 9.1683 17.7034 8.4258ZM17.0205 10.5725C16.9302 11.0346 16.6009 11.4139 16.1559 11.5679C15.987 11.6314 15.8782 11.7964 15.8863 11.9766L16.203 19.0104C16.2175 19.1483 16.172 19.2859 16.078 19.3879C15.8271 19.6363 15.423 19.6363 15.1721 19.3879C15.0734 19.2777 15.0285 19.1293 15.0496 18.9829L15.3638 11.9766C15.3719 11.7964 15.2631 11.6314 15.0942 11.5679C14.6492 11.4139 14.3198 11.0346 14.2296 10.5725C14.1182 9.93809 14.1574 9.28637 14.3442 8.66996L14.6117 7.78913C14.8187 7.22949 15.4401 6.94361 15.9998 7.15059C16.2957 7.26001 16.5289 7.4933 16.6384 7.78913L16.9059 8.66996C17.0924 9.28642 17.1317 9.93809 17.0205 10.5725Z" fill="white"/>
<path d="M11.2499 6.25C11.0198 6.25 10.8333 6.43656 10.8333 6.66667V10.2442L9.70534 11.3721C9.6219 11.4552 9.57752 11.5698 9.58325 11.6875L9.94784 18.9792C9.95654 19.1364 9.89945 19.2902 9.79034 19.4038C9.56226 19.6339 9.19081 19.6355 8.96065 19.4074C8.9594 19.4062 8.9582 19.4049 8.957 19.4038C8.84784 19.2902 8.79081 19.1364 8.7995 18.9792L9.16659 11.6875C9.17242 11.5699 9.1282 11.4553 9.04492 11.3721L7.91659 10.2442V6.66667C7.91659 6.43656 7.73002 6.25 7.49992 6.25C7.26981 6.25 7.08325 6.43656 7.08325 6.66667V10.4167C7.08325 10.5272 7.12721 10.6331 7.20534 10.7113L8.3245 11.8308L7.96909 18.9388C7.93127 19.7152 8.53002 20.3753 9.30643 20.4131C10.0828 20.4509 10.7429 19.8521 10.7808 19.0757C10.783 19.0301 10.783 18.9844 10.7808 18.9388L10.4253 11.8309L11.5445 10.7113C11.6226 10.6332 11.6666 10.5272 11.6666 10.4167V6.66672C11.6666 6.43656 11.48 6.25 11.2499 6.25Z" fill="white"/>
<path d="M8.75016 6.25C8.52006 6.25 8.3335 6.43656 8.3335 6.66667V10C8.3335 10.2301 8.52006 10.4167 8.75016 10.4167C8.98027 10.4167 9.16683 10.2301 9.16683 10V6.66667C9.16683 6.43656 8.98027 6.25 8.75016 6.25Z" fill="white"/>
<path d="M9.99992 6.25C9.76981 6.25 9.58325 6.43656 9.58325 6.66667V10C9.58325 10.2301 9.76981 10.4167 9.99992 10.4167C10.23 10.4167 10.4166 10.2301 10.4166 10V6.66667C10.4166 6.43656 10.23 6.25 9.99992 6.25Z" fill="white"/>
<path d="M12.5 0C5.59646 0 0 5.59646 0 12.5C0 19.4035 5.59646 25 12.5 25C19.4035 25 25 19.4035 25 12.5C24.9922 5.59969 19.4003 0.0078125 12.5 0ZM12.5 24.1667C6.05667 24.1667 0.833333 18.9433 0.833333 12.5C0.833333 6.05667 6.05667 0.833333 12.5 0.833333C18.9433 0.833333 24.1667 6.05667 24.1667 12.5C24.1593 18.9403 18.9403 24.1593 12.5 24.1667Z" fill="white"/>
<path d="M13.8525 20.3215C13.8301 20.0925 13.6263 19.9249 13.3972 19.9473C13.3919 19.9478 13.3865 19.9484 13.3812 19.9491L13.3828 19.9487C12.7962 20.0168 12.2036 20.0168 11.617 19.9487C11.3883 19.9219 11.1813 20.0855 11.1545 20.3141C11.1277 20.5428 11.2913 20.7498 11.5199 20.7766C12.1705 20.8526 12.8277 20.8526 13.4782 20.7766C13.7072 20.7543 13.8748 20.5505 13.8525 20.3215Z" fill="white"/>
<path d="M18.875 7.13085C18.7272 6.95455 18.4644 6.93147 18.2881 7.07939C18.2875 7.07986 18.2869 7.08038 18.2863 7.08085C18.1104 7.22918 18.088 7.49199 18.2363 7.66793C20.7485 10.6502 20.5563 15.0601 17.7942 17.8125C17.6312 17.975 17.6307 18.2389 17.7932 18.4019C17.9556 18.5649 18.2195 18.5654 18.3825 18.4029C21.4522 15.345 21.6662 10.4449 18.875 7.13085Z" fill="white"/>
<path d="M9.70789 5.50756C9.70763 5.50756 9.70737 5.50751 9.70711 5.50751C9.7067 5.50751 9.70628 5.50756 9.70581 5.50756H9.70789Z" fill="white"/>
<path d="M14.4655 4.39961C12.8371 4.00935 11.1293 4.11424 9.56088 4.70086C9.34547 4.78185 9.23656 5.02216 9.31755 5.23752C9.37859 5.39987 9.5338 5.50732 9.70719 5.50747C9.75703 5.50721 9.8064 5.4981 9.85297 5.48044C11.2654 4.95226 12.8033 4.85794 14.2696 5.20961C14.4933 5.26367 14.7185 5.12622 14.7726 4.90253C14.8266 4.67883 14.6892 4.45367 14.4655 4.39961Z" fill="white"/>
<path d="M7.18726 17.7917C5.78263 16.3894 4.99539 14.4848 5.00018 12.5C4.99607 10.9143 5.49836 9.36865 6.43393 8.08834C6.57221 7.90438 6.53518 7.64318 6.35122 7.5049C6.16726 7.36662 5.90607 7.40365 5.76778 7.58761C5.76534 7.59089 5.76294 7.59417 5.7606 7.5975C3.35159 10.9094 3.70607 15.4808 6.59685 18.3817C6.75976 18.5447 7.02403 18.5448 7.18706 18.3819C7.35008 18.219 7.35018 17.9547 7.18726 17.7917Z" fill="white"/>
</svg>
